<svg width="2113" height="2500" viewBox="0 0 2113 2500" fill="none" xmlns="http://www.w3.org/2000/svg">
<path d="M2083.14 774C2083.93 738.172 2075.3 702.765 2058.11 671.319C2040.29 640.923 2014.61 615.893 1983.77 598.866C1710.33 440.986 1436.79 283.327 1163.16 125.889C1089.48 83.286 1018.07 84.7974 944.86 128.062C836.038 192.013 291.08 504.592 128.698 598.771C61.8183 637.501 29.323 696.824 29.323 773.906V1726.09C28.6328 1761.17 36.925 1795.83 53.4111 1826.79C71.234 1858.11 97.3933 1883.88 128.982 1901.23C291.364 1995.69 836.416 2307.89 945.238 2372.13C1018.45 2415.39 1089.86 2416.9 1163.64 2374.3C1437.01 2216.36 1710.55 2058.64 1984.24 1901.13C2015.83 1883.79 2041.99 1858.02 2059.81 1826.7C2076.29 1795.74 2084.59 1761.07 2083.9 1726V774H2083.14Z" fill="#453A62"/>
<path d="M2083.33 1726.09C2084.04 1761.17 2075.75 1795.84 2059.24 1826.79C2055.19 1834.16 2050.61 1841.24 2045.54 1847.95L1056.23 1250L1983.76 598.866C2014.58 615.899 2040.23 640.929 2058.01 671.319C2075.28 702.74 2083.94 738.159 2083.14 774C2083.33 1091.4 2083.33 1726.09 2083.33 1726.09Z" fill="#5E5086"/>
<path d="M2058.01 671.319L53.1277 1826.79C36.715 1795.84 28.488 1761.21 29.2285 1726.19V773.906C29.2285 696.824 61.8183 637.501 128.604 598.771C291.08 504.592 836.038 192.013 944.954 127.873C1017.97 84.6084 1089.48 83.097 1163.16 125.7C1436.54 283.642 1710.07 441.364 1983.77 598.866C2014.58 615.899 2040.23 640.929 2058.01 671.319Z" fill="#8F4E8B"/>
<path d="M1106.38 1595.36C1044.5 1595.44 983.733 1578.91 930.427 1547.5C877.121 1516.08 833.23 1470.93 803.338 1416.76C800.279 1411.33 797.392 1405.79 794.68 1400.14C757.798 1323.98 750.129 1236.94 773.125 1155.5C796.121 1074.06 848.185 1003.89 919.458 958.26C990.73 912.632 1076.26 894.72 1159.86 907.918C1243.45 921.116 1319.3 964.506 1373.05 1029.87C1377.64 1035.41 1381.71 1041.21 1386.3 1047.19C1388.37 1050.04 1390.45 1052.9 1392.36 1055.84L1696 880.968C1688.61 869.079 1680.88 857.536 1672.8 846.34C1668.55 840.366 1664.14 834.653 1659.98 829.026C1554.44 691.938 1401.36 599.369 1230.92 569.578C1060.49 539.786 885.074 574.935 739.279 668.09C593.485 761.246 487.895 905.646 443.336 1072.81C398.777 1239.97 418.483 1417.76 498.569 1571.12C501.512 1576.66 504.543 1582.11 507.227 1587.56C566.044 1691.32 650.69 1778.12 752.951 1839.52C855.212 1900.92 953.452 1934.37 1090.85 1938C1228.25 1941.63 1328.12 1913.43 1433.49 1857.52C1538.85 1801.61 1620.78 1730.51 1685 1630L1388 1450.74C1356.57 1498.67 1321 1526.71 1270.56 1553.93C1220.12 1581.15 1163.69 1595.39 1106.38 1595.36Z" fill="white"/>
<path d="M1054.5 1925H968V2045.5C968 2045.5 1174.5 2045.5 1174.5 2117C1174.5 2200 968 2190 968 2190V2273.5C968 2273.5 1261.73 2287 1266.5 2117C1270.33 1980.5 1054.5 1980 1054.5 1980V1925Z" fill="white"/>
</svg>
